<?xml version="1.0" encoding="UTF-8" standalone="no"?>
<!-- Created with Inkscape (https://www.inkscape.org/) -->
<!-- ClipArt by Arvin61r58 (https://openclipart.org/user-detail/Arvin61r58) -->
<svg
   xmlns:dc="http://purl.org/dc/elements/1.1/"
   xmlns:cc="http://creativecommons.org/ns#"
   xmlns:rdf="http://www.w3.org/1999/02/22-rdf-syntax-ns#"
   xmlns:svg="http://www.w3.org/2000/svg"
   xmlns="http://www.w3.org/2000/svg"
   id="svg9"
   version="1.1"
   viewBox="0 0 7.033788 0.42416668"
   height="40.720001"
   width="675.24365">
  <title
     id="title2161">Decorative Header 10</title>
  <defs
     id="defs2" />
  <metadata
     id="metadata6">
    <rdf:RDF>
      <cc:Work
         rdf:about="">
        <dc:format>image/svg+xml</dc:format>
        <dc:type
           rdf:resource="http://purl.org/dc/dcmitype/StillImage" />
        <dc:title>Decorative Header 10</dc:title>
        <cc:license
           rdf:resource="http://creativecommons.org/publicdomain/zero/1.0/" />
        <dc:subject>
          <rdf:Bag>
            <rdf:li>divider</rdf:li>
            <rdf:li>DTP</rdf:li>
            <rdf:li>flourish</rdf:li>
            <rdf:li>footer</rdf:li>
            <rdf:li>header</rdf:li>
            <rdf:li>page</rdf:li>
            <rdf:li>rule</rdf:li>
          </rdf:Bag>
        </dc:subject>
        <dc:description>Decorative page divider, footer, header, etc.</dc:description>
        <dc:creator>
          <cc:Agent>
            <dc:title>Arvin61r58</dc:title>
          </cc:Agent>
        </dc:creator>
        <dc:publisher>
          <cc:Agent>
            <dc:title>Openclipart.org</dc:title>
          </cc:Agent>
        </dc:publisher>
        <dc:identifier>https://openclipart.org/</dc:identifier>
        <dc:source>https://openclipart.org/user-detail/Arvin61r58</dc:source>
      </cc:Work>
      <cc:License
         rdf:about="http://creativecommons.org/publicdomain/zero/1.0/">
        <cc:permits
           rdf:resource="http://creativecommons.org/ns#Reproduction" />
        <cc:permits
           rdf:resource="http://creativecommons.org/ns#Distribution" />
        <cc:permits
           rdf:resource="http://creativecommons.org/ns#DerivativeWorks" />
      </cc:License>
    </rdf:RDF>
  </metadata>
  <g
     transform="translate(-0.73310611,-5.2879167)"
     id="layer1">
    <g
       id="g945"
       transform="matrix(0.03937008,0,0,0.03937008,0.03034067,0.28559817)">
      <title
         id="title2163">Decorative Header 10  --  by Arvin61r58</title>
      <g
         id="g931"
         transform="matrix(1,0,0,1.0239995,0,-3.2761708)"
         style="stroke-width:0.98821199">
        <path
           style="fill:#000000;stroke-width:0.98821199"
           d="m 34.876315,129.89609 c -0.78873,-0.0145 -1.64754,0.15394 -2.27481,0.51105 -1.06595,0.60684 -1.55594,0.60684 -2.62188,0 -0.75771,-0.43136 -1.8608,-0.60048 -2.1753,-0.3886 v 0.26755 c 0.11124,0.0719 0.31569,0.12105 0.55098,0.12105 0.72387,0 1.74338,0.84774 1.74338,1.44959 0,0.70293 -1.36957,1.47259 -2.29436,1.81519 -0.92479,0.3426 -1.073159,1.06326 0.422482,1.37784 1.495641,0.31458 2.421428,-0.11335 3.060088,-0.89334 0.39348,-0.48055 0.77408,-0.46278 1.72871,0.0807 1.01994,0.58064 1.999735,0.78514 4.431965,0.92476 2.05159,0.11777 3.17007,-0.17434 3.85059,-1.00545 0.39347,-0.48055 0.77409,-0.46278 1.72872,0.0807 1.01992,0.58064 1.99973,0.78514 4.43195,0.92476 0.0649,0.003 0.12621,0.006 0.18925,0.009 v -1.47012 c -0.19855,0.0247 -0.38645,0.0233 -0.54889,-0.0177 -0.36998,-0.0934 -1.10166,-0.25413 -1.62606,-0.35709 -1.34305,-0.26369 -2.02621,-0.5239 -2.02621,-0.77222 0,-0.29355 0.89075,-0.27034 1.07264,0.0279 0.081,0.13288 0.58514,0.24172 1.12012,0.24172 1.54906,0 2.12989,-1.23212 1.10301,-2.34003 -0.69522,-0.75007 -2.87537,-0.79029 -4.12992,-0.0761 -1.06595,0.60684 -1.55593,0.60684 -2.62189,0 -0.89129,-0.50741 -2.26468,-0.65404 -2.26468,-0.24172 0,0.13287 0.2883,0.24172 0.64037,0.24172 0.72388,0 1.74338,0.84774 1.74338,1.44959 0,0.8833 -1.99092,2.0864 -3.02203,1.82616 -0.36998,-0.0934 -1.10164,-0.25413 -1.62606,-0.35709 -1.343045,-0.2637 -2.026205,-0.52425 -2.026205,-0.77258 0,-0.29355 0.89074,-0.26998 1.07264,0.0283 0.081,0.13289 0.585135,0.24172 1.120125,0.24172 1.54905,0 2.1299,-1.23211 1.10301,-2.34003 -0.34761,-0.37503 -1.06638,-0.57262 -1.855115,-0.58713 z"
           id="path834" />
        <path
           id="path862"
           d="m 119.9511,129.89609 c 0.78873,-0.0145 1.64754,0.15394 2.27481,0.51105 1.06595,0.60684 1.55594,0.60684 2.62188,0 0.75771,-0.43136 1.8608,-0.60048 2.1753,-0.3886 v 0.26755 c -0.11124,0.0719 -0.31569,0.12105 -0.55098,0.12105 -0.72387,0 -1.74338,0.84774 -1.74338,1.44959 0,0.70293 1.25981,1.6059 2.29436,1.81519 v 1.50693 c -1.81943,0.0627 -2.84391,-0.24244 -3.48257,-1.02243 -0.39348,-0.48055 -0.77408,-0.46278 -1.72871,0.0807 -1.01994,0.58064 -1.99973,0.78514 -4.43196,0.92476 -2.05159,0.11777 -3.17007,-0.17434 -3.85059,-1.00545 -0.39347,-0.48055 -0.77409,-0.46278 -1.72872,0.0807 -1.01992,0.58064 -1.99973,0.78514 -4.43195,0.92476 -0.0649,0.003 -0.12621,0.006 -0.18925,0.009 v -1.47012 c 0.19855,0.0247 0.38645,0.0233 0.54889,-0.0177 0.36998,-0.0934 1.10166,-0.25413 1.62606,-0.35709 1.34305,-0.26369 2.02621,-0.5239 2.02621,-0.77222 0,-0.29355 -0.89075,-0.27034 -1.07264,0.0279 -0.081,0.13288 -0.58514,0.24172 -1.12012,0.24172 -1.54906,0 -2.12989,-1.23212 -1.10301,-2.34003 0.69522,-0.75007 2.87537,-0.79029 4.12992,-0.0761 1.06595,0.60684 1.55593,0.60684 2.62189,0 0.89129,-0.50741 2.26468,-0.65404 2.26468,-0.24172 0,0.13287 -0.2883,0.24172 -0.64037,0.24172 -0.72388,0 -1.74338,0.84774 -1.74338,1.44959 0,0.8833 1.99092,2.0864 3.02203,1.82616 0.36998,-0.0934 1.10164,-0.25413 1.62606,-0.35709 1.34304,-0.2637 2.0262,-0.52425 2.0262,-0.77258 0,-0.29355 -0.89074,-0.26998 -1.07264,0.0283 -0.081,0.13289 -0.58513,0.24172 -1.12012,0.24172 -1.54905,0 -2.1299,-1.23211 -1.10301,-2.34003 0.34761,-0.37503 1.06638,-0.57262 1.85511,-0.58713 z"
           style="fill:#000000;stroke-width:0.98821199" />
        <path
           style="fill:#000000;stroke-width:0.98821199"
           d="m 139.79485,129.89609 c 0.78873,-0.0145 1.64754,0.15394 2.27481,0.51105 1.06595,0.60684 1.55594,0.60684 2.62188,0 0.75772,-0.43136 1.86081,-0.60048 2.17531,-0.3886 v 0.26755 c -0.11124,0.0719 -0.31569,0.12105 -0.55098,0.12105 -0.72387,0 -1.74339,0.84774 -1.74339,1.44959 0,0.70293 1.25982,1.6059 2.29437,1.81519 v 1.50693 c -1.81943,0.0627 -2.84392,-0.24244 -3.48258,-1.02243 -0.39348,-0.48055 -0.77408,-0.46278 -1.72871,0.0807 -1.01994,0.58064 -1.99973,0.78514 -4.43196,0.92476 -2.05159,0.11777 -3.17007,-0.17434 -3.85059,-1.00545 -0.39347,-0.48055 -0.77409,-0.46278 -1.72872,0.0807 -1.01992,0.58064 -1.99973,0.78514 -4.43195,0.92476 -0.0649,0.003 -0.12621,0.006 -0.18925,0.009 v -1.47012 c 0.19855,0.0247 0.38645,0.0233 0.54889,-0.0177 0.36998,-0.0934 1.10166,-0.25413 1.62606,-0.35709 1.34305,-0.26369 2.02621,-0.5239 2.02621,-0.77222 0,-0.29355 -0.89075,-0.27034 -1.07264,0.0279 -0.081,0.13288 -0.58514,0.24172 -1.12012,0.24172 -1.54906,0 -2.12989,-1.23212 -1.10301,-2.34003 0.69522,-0.75007 2.87537,-0.79029 4.12992,-0.0761 1.06595,0.60684 1.55593,0.60684 2.62189,0 0.89129,-0.50741 2.26468,-0.65404 2.26468,-0.24172 0,0.13287 -0.2883,0.24172 -0.64037,0.24172 -0.72388,0 -1.74338,0.84774 -1.74338,1.44959 0,0.8833 1.99092,2.0864 3.02203,1.82616 0.36998,-0.0934 1.10164,-0.25413 1.62606,-0.35709 1.34304,-0.2637 2.0262,-0.52425 2.0262,-0.77258 0,-0.29355 -0.89074,-0.26998 -1.07264,0.0283 -0.081,0.13289 -0.58513,0.24172 -1.12012,0.24172 -1.54905,0 -2.1299,-1.23211 -1.10301,-2.34003 0.34761,-0.37503 1.06638,-0.57262 1.85511,-0.58713 z"
           id="path864" />
        <path
           id="path866"
           d="m 159.63861,129.89609 c 0.78873,-0.0145 1.64754,0.15394 2.27481,0.51105 1.06595,0.60684 1.55594,0.60684 2.62188,0 0.75771,-0.43136 1.8608,-0.60048 2.1753,-0.3886 v 0.26755 c -0.11124,0.0719 -0.31569,0.12105 -0.55098,0.12105 -0.72387,0 -1.74338,0.84774 -1.74338,1.44959 0,0.70293 1.25981,1.6059 2.29436,1.81519 v 1.50693 c -1.81943,0.0627 -2.84391,-0.24244 -3.48257,-1.02243 -0.39348,-0.48055 -0.77408,-0.46278 -1.72871,0.0807 -1.01994,0.58064 -1.99973,0.78514 -4.43196,0.92476 -2.05159,0.11777 -3.17007,-0.17434 -3.85059,-1.00545 -0.39347,-0.48055 -0.77409,-0.46278 -1.72872,0.0807 -1.01992,0.58064 -1.99973,0.78514 -4.43195,0.92476 -0.0649,0.003 -0.12621,0.006 -0.18925,0.009 v -1.47012 c 0.19855,0.0247 0.38645,0.0233 0.54889,-0.0177 0.36998,-0.0934 1.10166,-0.25413 1.62606,-0.35709 1.34305,-0.26369 2.02621,-0.5239 2.02621,-0.77222 0,-0.29355 -0.89075,-0.27034 -1.07264,0.0279 -0.081,0.13288 -0.58514,0.24172 -1.12012,0.24172 -1.54906,0 -2.12989,-1.23212 -1.10301,-2.34003 0.69522,-0.75007 2.87537,-0.79029 4.12992,-0.0761 1.06595,0.60684 1.55593,0.60684 2.62189,0 0.89129,-0.50741 2.26468,-0.65404 2.26468,-0.24172 0,0.13287 -0.2883,0.24172 -0.64037,0.24172 -0.72388,0 -1.74338,0.84774 -1.74338,1.44959 0,0.8833 1.99092,2.0864 3.02203,1.82616 0.36998,-0.0934 1.10164,-0.25413 1.62606,-0.35709 1.34304,-0.2637 2.0262,-0.52425 2.0262,-0.77258 0,-0.29355 -0.89074,-0.26998 -1.07264,0.0283 -0.081,0.13289 -0.58513,0.24172 -1.12012,0.24172 -1.54905,0 -2.1299,-1.23211 -1.10301,-2.34003 0.34761,-0.37503 1.06638,-0.57262 1.85511,-0.58713 z"
           style="fill:#000000;stroke-width:0.98821199" />
        <path
           style="fill:#000000;stroke-width:0.98821199"
           d="m 94.40758,129.89609 c -0.78873,-0.0145 -1.64754,0.15394 -2.27481,0.51105 -1.06595,0.60684 -1.55594,0.60684 -2.62188,0 -0.757709,-0.43136 -1.860799,-0.60048 -2.175299,-0.3886 v 0.26755 c 0.11124,0.0719 0.31569,0.12105 0.55098,0.12105 0.72387,0 1.743379,0.84774 1.743379,1.44959 0,0.70293 -1.259809,1.6059 -2.294359,1.81519 v 1.50693 c 1.819426,0.0627 2.843909,-0.24244 3.482569,-1.02243 0.39348,-0.48055 0.77408,-0.46278 1.72871,0.0807 1.01994,0.58064 1.99973,0.78514 4.43196,0.92476 2.05159,0.11777 3.17007,-0.17434 3.85059,-1.00545 0.39347,-0.48055 0.77409,-0.46278 1.72872,0.0807 1.01992,0.58064 1.99973,0.78514 4.43195,0.92476 0.0649,0.003 0.12621,0.006 0.18925,0.009 v -1.47012 c -0.19855,0.0247 -0.38645,0.0233 -0.54889,-0.0177 -0.36998,-0.0934 -1.10166,-0.25413 -1.62606,-0.35709 -1.34305,-0.26369 -2.02621,-0.5239 -2.02621,-0.77222 0,-0.29355 0.89075,-0.27034 1.07264,0.0279 0.081,0.13288 0.58514,0.24172 1.12012,0.24172 1.54906,0 2.12989,-1.23212 1.10301,-2.34003 -0.69522,-0.75007 -2.87537,-0.79029 -4.12992,-0.0761 -1.06595,0.60684 -1.55593,0.60684 -2.62189,0 -0.89129,-0.50741 -2.26468,-0.65404 -2.26468,-0.24172 0,0.13287 0.2883,0.24172 0.64037,0.24172 0.72388,0 1.74338,0.84774 1.74338,1.44959 0,0.8833 -1.99092,2.0864 -3.02203,1.82616 -0.36998,-0.0934 -1.10164,-0.25413 -1.62606,-0.35709 -1.34304,-0.2637 -2.0262,-0.52425 -2.0262,-0.77258 0,-0.29355 0.89074,-0.26998 1.07264,0.0283 0.081,0.13289 0.58513,0.24172 1.12012,0.24172 1.54905,0 2.1299,-1.23211 1.10301,-2.34003 -0.34761,-0.37503 -1.06638,-0.57262 -1.85511,-0.58713 z"
           id="path873" />
        <path
           id="path875"
           d="m 74.563831,129.89609 c -0.78873,-0.0145 -1.64754,0.15394 -2.27481,0.51105 -1.06595,0.60684 -1.55594,0.60684 -2.62188,0 -0.75772,-0.43136 -1.86081,-0.60048 -2.17531,-0.3886 v 0.26755 c 0.11124,0.0719 0.31569,0.12105 0.55098,0.12105 0.72387,0 1.74339,0.84774 1.74339,1.44959 0,0.70293 -1.25982,1.6059 -2.29437,1.81519 v 1.50693 c 1.81943,0.0627 2.84392,-0.24244 3.48258,-1.02243 0.39348,-0.48055 0.77408,-0.46278 1.72871,0.0807 1.01994,0.58064 1.99973,0.78514 4.43196,0.92476 2.05159,0.11777 3.17007,-0.17434 3.85059,-1.00545 0.39347,-0.48055 0.77409,-0.46278 1.72872,0.0807 1.01992,0.58064 1.99973,0.78514 4.43195,0.92476 0.0649,0.003 0.12621,0.006 0.18925,0.009 v -1.47012 c -0.19855,0.0247 -0.38645,0.0233 -0.54889,-0.0177 -0.36998,-0.0934 -1.10166,-0.25413 -1.62606,-0.35709 -1.34305,-0.26369 -2.02621,-0.5239 -2.02621,-0.77222 0,-0.29355 0.89075,-0.27034 1.07264,0.0279 0.081,0.13288 0.58514,0.24172 1.12012,0.24172 1.54906,0 2.12989,-1.23212 1.10301,-2.34003 -0.69522,-0.75007 -2.87537,-0.79029 -4.12992,-0.0761 -1.06595,0.60684 -1.55593,0.60684 -2.62189,0 -0.89129,-0.50741 -2.26468,-0.65404 -2.26468,-0.24172 0,0.13287 0.2883,0.24172 0.64037,0.24172 0.72388,0 1.74338,0.84774 1.74338,1.44959 0,0.8833 -1.99092,2.0864 -3.02203,1.82616 -0.36998,-0.0934 -1.10164,-0.25413 -1.62606,-0.35709 -1.34304,-0.2637 -2.0262,-0.52425 -2.0262,-0.77258 0,-0.29355 0.89074,-0.26998 1.07264,0.0283 0.081,0.13289 0.58513,0.24172 1.12012,0.24172 1.54905,0 2.1299,-1.23211 1.10301,-2.34003 -0.34761,-0.37503 -1.06638,-0.57262 -1.85511,-0.58713 z"
           style="fill:#000000;stroke-width:0.98821199" />
        <path
           style="fill:#000000;stroke-width:0.98821199"
           d="m 54.720071,129.89609 c -0.78873,-0.0145 -1.64754,0.15394 -2.27481,0.51105 -1.06595,0.60684 -1.55594,0.60684 -2.62188,0 -0.75771,-0.43136 -1.8608,-0.60048 -2.1753,-0.3886 v 0.26755 c 0.11124,0.0719 0.31569,0.12105 0.55098,0.12105 0.72387,0 1.74338,0.84774 1.74338,1.44959 0,0.70293 -1.25981,1.6059 -2.29436,1.81519 v 1.50693 c 1.81943,0.0627 2.84391,-0.24244 3.48257,-1.02243 0.39348,-0.48055 0.77408,-0.46278 1.72871,0.0807 1.01994,0.58064 1.99973,0.78514 4.43196,0.92476 2.05159,0.11777 3.17007,-0.17434 3.85059,-1.00545 0.39347,-0.48055 0.77409,-0.46278 1.72872,0.0807 1.01992,0.58064 1.99973,0.78514 4.43195,0.92476 0.0649,0.003 0.12621,0.006 0.18925,0.009 v -1.47012 c -0.19855,0.0247 -0.38645,0.0233 -0.54889,-0.0177 -0.36998,-0.0934 -1.10166,-0.25413 -1.62606,-0.35709 -1.34305,-0.26369 -2.02621,-0.5239 -2.02621,-0.77222 0,-0.29355 0.89075,-0.27034 1.07264,0.0279 0.081,0.13288 0.58514,0.24172 1.12012,0.24172 1.54906,0 2.12989,-1.23212 1.10301,-2.34003 -0.69522,-0.75007 -2.87537,-0.79029 -4.12992,-0.0761 -1.06595,0.60684 -1.55593,0.60684 -2.62189,0 -0.89129,-0.50741 -2.26468,-0.65404 -2.26468,-0.24172 0,0.13287 0.2883,0.24172 0.64037,0.24172 0.72388,0 1.74338,0.84774 1.74338,1.44959 0,0.8833 -1.99092,2.0864 -3.02203,1.82616 -0.36998,-0.0934 -1.10164,-0.25413 -1.62606,-0.35709 -1.34304,-0.2637 -2.0262,-0.52425 -2.0262,-0.77258 0,-0.29355 0.89074,-0.26998 1.07264,0.0283 0.081,0.13289 0.58513,0.24172 1.12012,0.24172 1.54905,0 2.1299,-1.23211 1.10301,-2.34003 -0.34761,-0.37503 -1.06638,-0.57262 -1.85511,-0.58713 z"
           id="path877" />
        <path
           id="path885"
           d="m 179.48237,129.89609 c 0.78873,-0.0145 1.64754,0.15394 2.27481,0.51105 1.06595,0.60684 1.55594,0.60684 2.62188,0 0.75771,-0.43136 1.8608,-0.60048 2.1753,-0.3886 v 0.26755 c -0.11124,0.0719 -0.31569,0.12105 -0.55098,0.12105 -0.72387,0 -1.74338,0.84774 -1.74338,1.44959 0,0.70293 1.36957,1.47259 2.29436,1.81519 0.92479,0.3426 1.07316,1.06326 -0.42248,1.37784 -1.49565,0.31458 -2.42143,-0.11335 -3.06009,-0.89334 -0.39348,-0.48055 -0.77408,-0.46278 -1.72871,0.0807 -1.01994,0.58064 -1.99974,0.78514 -4.43197,0.92476 -2.05159,0.11777 -3.17007,-0.17434 -3.85059,-1.00545 -0.39347,-0.48055 -0.77409,-0.46278 -1.72872,0.0807 -1.01992,0.58064 -1.99973,0.78514 -4.43195,0.92476 -0.0649,0.003 -0.12621,0.006 -0.18925,0.009 v -1.47012 c 0.19855,0.0247 0.38645,0.0233 0.54889,-0.0177 0.36998,-0.0934 1.10166,-0.25413 1.62606,-0.35709 1.34305,-0.26369 2.02621,-0.5239 2.02621,-0.77222 0,-0.29355 -0.89075,-0.27034 -1.07264,0.0279 -0.081,0.13288 -0.58514,0.24172 -1.12012,0.24172 -1.54906,0 -2.12989,-1.23212 -1.10301,-2.34003 0.69522,-0.75007 2.87537,-0.79029 4.12992,-0.0761 1.06595,0.60684 1.55593,0.60684 2.62189,0 0.89129,-0.50741 2.26468,-0.65404 2.26468,-0.24172 0,0.13287 -0.2883,0.24172 -0.64037,0.24172 -0.72388,0 -1.74338,0.84774 -1.74338,1.44959 0,0.8833 1.99092,2.0864 3.02203,1.82616 0.36998,-0.0934 1.10164,-0.25413 1.62606,-0.35709 1.34305,-0.2637 2.02621,-0.52425 2.02621,-0.77258 0,-0.29355 -0.89074,-0.26998 -1.07264,0.0283 -0.081,0.13289 -0.58514,0.24172 -1.12013,0.24172 -1.54905,0 -2.1299,-1.23211 -1.10301,-2.34003 0.34761,-0.37503 1.06638,-0.57262 1.85512,-0.58713 z"
           style="fill:#000000;stroke-width:0.98821199" />
      </g>
      <g
         id="g909"
         transform="matrix(1,0,0,1.0239995,0,-7.4063082)"
         style="stroke-width:0.98821199">
        <path
           style="fill:#000000;stroke-width:0.98821193"
           d="m 26.796923,140.06529 c 0.38504,-0.39541 0.39967,-0.47205 0.131217,-0.68701 -0.25353,-0.203 -0.367467,-0.16184 -0.707884,0.25568 -0.515047,0.63168 -1.331461,0.65697 -1.9135,0.0593 -0.487877,-0.50101 -0.581989,-1.4556 -0.143513,-1.4556 0.4598,0 0.894544,-0.78417 0.894544,-1.61355 0,-1.08289 -1.026934,-2.01647 -2.600523,-2.3641 -1.357058,-0.29979 -2.260609,-0.79819 -2.490746,-1.37393 -0.13087,-0.32738 -0.195718,-0.35971 -0.282454,-0.14085 -0.24707,0.62345 -0.506344,2.03143 -0.510878,2.77432 -0.0059,0.93769 0.925848,2.79447 1.71958,3.42741 0.723941,0.57728 1.872023,0.58036 2.288907,0.007 0.304224,-0.41902 0.305604,-0.41821 0.305604,0.1765 0,1.26074 2.346989,1.92432 3.309646,0.93574 z"
           id="path1583" />
        <path
           id="path905"
           d="m 187.56176,140.06528 c -0.38504,-0.39541 -0.39967,-0.47205 -0.13121,-0.687 0.25353,-0.20301 0.36746,-0.16185 0.70788,0.25568 0.51505,0.63168 1.33146,0.65697 1.9135,0.0593 0.48788,-0.50101 0.58199,-1.4556 0.14351,-1.4556 -0.4598,0 -0.89454,-0.78417 -0.89454,-1.61355 0,-1.08289 1.02693,-2.01647 2.60052,-2.3641 1.35706,-0.29979 2.26061,-0.79819 2.49075,-1.37393 0.13087,-0.32738 0.19572,-0.35972 0.28245,-0.14085 0.24707,0.62344 0.50635,2.03143 0.51088,2.77431 0.006,0.93769 -0.92585,2.79447 -1.71958,3.42742 -0.72394,0.57728 -1.87202,0.58036 -2.28891,0.007 -0.30422,-0.41902 -0.3056,-0.41821 -0.3056,0.1765 0,1.26074 -2.34699,1.92432 -3.30965,0.93574 z"
           style="fill:#000000;stroke-width:0.98821193" />
      </g>
    </g>
  </g>
</svg>
