<svg xmlns="http://www.w3.org/2000/svg" xmlns:xlink="http://www.w3.org/1999/xlink" width="113.033" height="40.631" viewBox="0 0 113.033 40.631">
  <defs>
    <clipPath id="clip-path">
      <rect id="SVGID" width="113.033" height="40.631" transform="translate(0 0)" fill="none"/>
    </clipPath>
  </defs>
  <g id="besting_logo" transform="translate(0 0)" clip-path="url(#clip-path)">
    <path id="Path_3194" data-name="Path 3194" d="M0,14.58H8.078a6.392,6.392,0,0,1,4.708,1.595,4.072,4.072,0,0,1,1.209,2.984v.051a4.262,4.262,0,0,1-2.573,4.014C13.558,23.97,15,25.128,15,27.6v.052c0,3.216-2.65,4.939-6.664,4.939H0Zm10.831,5.094c0-1.441-1.106-2.29-3.164-2.29H3.113v4.785H7.435c2.058,0,3.4-.8,3.4-2.444Zm1,7.589c0-1.544-1.209-2.418-3.7-2.418H3.113v4.939H8.361c2.161,0,3.473-.823,3.473-2.47Z" fill="#825929"/>
    <path id="Path_3195" data-name="Path 3195" d="M18.573,14.579H31.925v2.83H21.737v4.682h9.03v2.856h-9.03v4.81H32.053v2.83H18.573Z" fill="#825929"/>
    <path id="Path_3196" data-name="Path 3196" d="M34.6,29.964,36.5,27.7a8.226,8.226,0,0,0,5.686,2.341c1.955,0,3.19-.926,3.19-2.264v-.051c0-1.261-.72-2.007-4.065-2.753-3.833-.9-5.994-2.084-5.994-5.377v-.051c0-3.087,2.573-5.223,6.149-5.223A9.982,9.982,0,0,1,48,16.586l-1.7,2.393a8.236,8.236,0,0,0-4.888-1.852c-1.852,0-2.933.926-2.933,2.135v.051c0,1.389.824,2.007,4.3,2.83,3.781.978,5.762,2.264,5.762,5.274v.051c0,3.4-2.65,5.377-6.431,5.377A10.925,10.925,0,0,1,34.6,29.964" fill="#825929"/>
    <path id="Path_3197" data-name="Path 3197" d="M56.311,17.512H50.573V14.579H65.211v2.933H59.475V32.588H56.311Z" fill="#825929"/>
    <rect id="Rectangle_3735" data-name="Rectangle 3735" width="3.164" height="18.008" transform="translate(68.684 14.58)" fill="#825929"/>
    <path id="Path_3198" data-name="Path 3198" d="M76.658,14.579h2.933l9.647,12.452V14.579h3.113V32.587H89.7l-9.93-12.811V32.587H76.658Z" fill="#825929"/>
    <path id="Path_3199" data-name="Path 3199" d="M96.183,23.635v-.052a9.159,9.159,0,0,1,9.287-9.313,9.768,9.768,0,0,1,6.921,2.445l-2.007,2.392a7.087,7.087,0,0,0-5.043-1.9,6.085,6.085,0,0,0-5.84,6.329v.051c0,3.7,2.445,6.432,6.123,6.432a7.294,7.294,0,0,0,4.348-1.363V25.307h-4.605V22.529h7.667v7.563a11.539,11.539,0,0,1-7.513,2.8,8.935,8.935,0,0,1-9.338-9.261" fill="#825929"/>
    <path id="Path_3200" data-name="Path 3200" d="M3.153,40.631l-.307-.275a1.483,1.483,0,0,1-.829.239A1.428,1.428,0,0,1,.54,39.162v-.009a1.441,1.441,0,0,1,1.486-1.441A1.428,1.428,0,0,1,3.5,39.145v.008a1.434,1.434,0,0,1-.247.8l.287.243Zm-.765-.677-.45-.386.39-.439.458.415a.921.921,0,0,0,.076-.382v-.009a.847.847,0,0,0-.845-.876.834.834,0,0,0-.836.868v.008a.848.848,0,0,0,.845.877.86.86,0,0,0,.362-.076" fill="#676666"/>
    <path id="Path_3201" data-name="Path 3201" d="M6.477,37.76H7.09v2.788H6.477Zm.012-.725h.6v.506h-.6Z" fill="#676666"/>
    <path id="Path_3202" data-name="Path 3202" d="M10.184,37.76h1.087a1.39,1.39,0,0,1,1.482,1.386v.007a1.4,1.4,0,0,1-1.482,1.394H10.184Zm.613.553v1.681h.474a.8.8,0,0,0,.84-.832v-.009a.8.8,0,0,0-.84-.84Z" fill="#676666"/>
    <path id="Path_3203" data-name="Path 3203" d="M16.455,37.739h.565l1.195,2.808h-.641l-.255-.625H16.14l-.255.625H15.26ZM17.1,39.38l-.371-.9-.37.9Z" fill="#676666"/>
    <path id="Path_3204" data-name="Path 3204" d="M24.4,37.76h.677l.729,1.963.728-1.963h.661l-1.127,2.808h-.541Z" fill="#676666"/>
    <path id="Path_3205" data-name="Path 3205" d="M29.879,38.229a1.462,1.462,0,0,1,1.182-.517,1.385,1.385,0,0,1,1.43,1.429v.012A1.39,1.39,0,0,1,31.1,40.6a1.359,1.359,0,0,1-1.362-1.505c0-.092,0-.128.008-.2h2.075a.743.743,0,0,0-.761-.609,1.022,1.022,0,0,0-.792.347ZM31.826,39.4H30.4a.689.689,0,0,0,.7.637.729.729,0,0,0,.725-.637" fill="#676666"/>
    <path id="Path_3206" data-name="Path 3206" d="M41.517,40.631l-.307-.275a1.483,1.483,0,0,1-.829.239A1.428,1.428,0,0,1,38.9,39.162v-.009a1.482,1.482,0,0,1,2.963-.008v.008a1.434,1.434,0,0,1-.247.8l.287.243Zm-.765-.677-.45-.386.39-.439.458.415a.921.921,0,0,0,.076-.382v-.009a.847.847,0,0,0-.845-.876.834.834,0,0,0-.836.868v.008a.848.848,0,0,0,.845.877.86.86,0,0,0,.362-.076" fill="#676666"/>
    <path id="Path_3207" data-name="Path 3207" d="M44.84,37.76h.613v2.788H44.84Zm.013-.725h.6v.506h-.6Z" fill="#676666"/>
    <path id="Path_3208" data-name="Path 3208" d="M48.548,37.76h1.087a1.39,1.39,0,0,1,1.482,1.386v.007a1.4,1.4,0,0,1-1.482,1.394H48.548Zm.613.553v1.681h.474a.8.8,0,0,0,.84-.832v-.009a.8.8,0,0,0-.84-.84Z" fill="#676666"/>
    <path id="Path_3209" data-name="Path 3209" d="M54.818,37.739h.565l1.195,2.808h-.641l-.255-.625H54.5l-.255.625h-.625Zm.645,1.641-.371-.9-.37.9Z" fill="#676666"/>
    <path id="Path_3210" data-name="Path 3210" d="M65.416,37.76l-.932,1.362.972,1.426h-.717l-.625-.956-.63.956h-.7l.971-1.418-.932-1.37h.717l.581.9.594-.9Z" fill="#676666"/>
    <path id="Path_3211" data-name="Path 3211" d="M69.19,37.739h.565l1.195,2.808h-.641l-.255-.625H68.875l-.255.625H68Zm.645,1.641-.371-.9-.37.9Z" fill="#676666"/>
    <path id="Path_3212" data-name="Path 3212" d="M73.78,37.76h.661l.733,1.179.733-1.179h.661v2.788h-.609v-1.82l-.785,1.19h-.016l-.776-1.179v1.809h-.6Z" fill="#676666"/>
    <path id="Path_3213" data-name="Path 3213" d="M79.637,37.76H80.3l.733,1.179.733-1.179h.661v2.788h-.609v-1.82l-.785,1.19h-.016l-.776-1.179v1.809h-.6Z" fill="#676666"/>
    <path id="Path_3214" data-name="Path 3214" d="M86.451,37.739h.565l1.195,2.808H87.57l-.255-.625H86.136l-.255.625h-.625ZM87.1,39.38l-.371-.9-.37.9Z" fill="#676666"/>
    <path id="Path_3215" data-name="Path 3215" d="M91.04,37.76h.613v2.23h1.39v.558h-2Z" fill="#676666"/>
    <path id="Path_3216" data-name="Path 3216" d="M95.9,37.76h.613v2.23h1.39v.558h-2Z" fill="#676666"/>
    <path id="Path_3217" data-name="Path 3217" d="M101.724,37.739h.565l1.195,2.808h-.641l-.255-.625h-1.179l-.255.625h-.625Zm.645,1.641-.371-.9-.37.9Z" fill="#676666"/>
    <path id="Path_3218" data-name="Path 3218" d="M106.314,37.76h1.275a1.1,1.1,0,0,1,.812.283.859.859,0,0,1,.239.637v.008a.865.865,0,0,1-.6.864l.681,1h-.717l-.6-.892h-.482v.892h-.613Zm1.235,1.354c.3,0,.47-.155.47-.395v-.007c0-.267-.179-.4-.482-.4h-.61v.8Z" fill="#676666"/>
    <rect id="Rectangle_3736" data-name="Rectangle 3736" width="0.613" height="2.788" transform="translate(111.621 37.76)" fill="#676666"/>
    <path id="Path_3219" data-name="Path 3219" d="M69.885,12.089h0c.4-.444,3.823-4,6.791-2.491,0,0-4.442.244-6.791,2.491M80.5,9.11a4.669,4.669,0,0,1-2.867-.275,11.516,11.516,0,0,1-1.077-.467c-4.293-2.016-6.719,3.764-6.719,3.764l2.635,1.07C79.266,15.611,80.5,9.11,80.5,9.11" fill="#8fb429"/>
    <path id="Path_3220" data-name="Path 3220" d="M72.7,7.647c.041-1.45.2-2.712.2-2.712a2.25,2.25,0,0,0-.207,2.709,3,3,0,0,1-1.4-1.951,2.622,2.622,0,0,1,1.171-2.6c.848-.6,1.955-1.687,1.281-3.094,0,0,5.356,5.283-1.044,7.647" fill="#8fb429"/>
    <path id="Path_3221" data-name="Path 3221" d="M69.882,10.913c-.789-1.216-1.375-2.344-1.375-2.344a2.245,2.245,0,0,0,1.367,2.346,2.986,2.986,0,0,1-2.259-.807,2.623,2.623,0,0,1-.509-2.8c.36-.973.651-2.5-.7-3.275,0,0,7.4,1.291,3.476,6.885" fill="#8fb429"/>
  </g>
</svg>
